<svg width="24" height="25" viewBox="0 0 24 25" fill="none" xmlns="http://www.w3.org/2000/svg">
<path d="M12 16.5C11.1667 16.5 10.4583 16.2083 9.875 15.625C9.29167 15.0417 9 14.3333 9 13.5C9 12.6667 9.29167 11.9583 9.875 11.375C10.4583 10.7917 11.1667 10.5 12 10.5C12.8333 10.5 13.5417 10.7917 14.125 11.375C14.7083 11.9583 15 12.6667 15 13.5C15 14.3333 14.7083 15.0417 14.125 15.625C13.5417 16.2083 12.8333 16.5 12 16.5ZM18 20.5C17.45 20.5 16.9792 20.3042 16.5875 19.9125C16.1958 19.5208 16 19.05 16 18.5C16 17.95 16.1958 17.4792 16.5875 17.0875C16.9792 16.6958 17.45 16.5 18 16.5C18.55 16.5 19.0208 16.6958 19.4125 17.0875C19.8042 17.4792 20 17.95 20 18.5C20 19.05 19.8042 19.5208 19.4125 19.9125C19.0208 20.3042 18.55 20.5 18 20.5ZM7 21.5C5.9 21.5 4.95833 21.1083 4.175 20.325C3.39167 19.5417 3 18.6 3 17.5V15.5H5V17.5C5 18.05 5.19583 18.5208 5.5875 18.9125C5.97917 19.3042 6.45 19.5 7 19.5H12V21.5H7ZM19 13.5V9.5C19 8.95 18.8042 8.47917 18.4125 8.0875C18.0208 7.69583 17.55 7.5 17 7.5H7C6.45 7.5 5.97917 7.69583 5.5875 8.0875C5.19583 8.47917 5 8.95 5 9.5V12.5H3V9.5C3 8.4 3.39167 7.45833 4.175 6.675C4.95833 5.89167 5.9 5.5 7 5.5H9L10 3.5H14L15 5.5H17C18.1 5.5 19.0417 5.89167 19.825 6.675C20.6083 7.45833 21 8.4 21 9.5V13.5H19Z" fill="#1F1F1F"/>
</svg>
