<svg width="272" height="93" viewBox="0 0 272 93" fill="none" xmlns="http://www.w3.org/2000/svg">
<g clip-path="url(#clip0_2259_450)">
<path d="M34.0243 33.3273V43.1545H55.9943C55.411 48.5909 53.6612 52.7727 50.9393 55.4909C47.8285 58.8364 42.7734 62.6 34.0243 62.6C20.609 62.6 10.1101 50.8909 10.1101 36.4636C10.1101 22.0364 20.4146 10.3273 34.0243 10.3273C41.218 10.3273 46.6619 13.4636 50.5504 17.4364L56.9664 10.5364C51.5225 4.89091 44.1344 0.5 34.0243 0.5C15.554 0.5 0 16.6 0 36.4636C0 56.3273 15.554 72.4273 34.0243 72.4273C43.94 72.4273 51.5225 68.8727 57.3553 62.3909C63.3824 55.9091 65.3267 46.7091 65.3267 39.3909C65.3267 37.0909 65.1322 35 64.9378 33.3273H34.0243Z" fill="#4285F4"/>
<path d="M92.5461 25.1729C80.6862 25.1729 70.7706 35.0001 70.7706 48.3819C70.7706 61.7638 80.4918 71.591 92.5461 71.591C104.6 71.591 114.322 61.9729 114.322 48.591C114.322 35.0001 104.6 25.1729 92.5461 25.1729ZM92.5461 62.6001C85.9357 62.6001 80.2974 56.7456 80.2974 48.591C80.2974 40.2274 85.9357 34.5819 92.5461 34.5819C99.1566 34.5819 104.795 40.2274 104.795 48.591C104.795 56.7456 99.1566 62.6001 92.5461 62.6001Z" fill="#EA4335"/>
<path d="M198.896 30.4001H198.507C196.369 27.6819 192.286 25.1729 187.036 25.1729C176.149 25.1729 166.816 35.2092 166.816 48.3819C166.816 61.3456 176.149 71.591 187.036 71.591C192.286 71.591 196.369 69.0819 198.507 66.3638H198.896V69.7092C198.896 78.491 194.425 83.3001 187.425 83.3001C181.593 83.3001 178.093 78.9092 176.538 74.9365L168.372 78.7001C170.705 84.7638 177.121 92.5001 187.62 92.5001C198.702 92.5001 208.229 85.391 208.229 68.2456V26.4274H199.285V30.4001H198.896ZM188.009 62.6001C181.398 62.6001 176.538 56.5365 176.538 48.591C176.538 40.4365 181.593 34.5819 188.009 34.5819C194.425 34.5819 199.48 40.6456 199.48 48.8001C199.674 56.7456 194.619 62.6001 188.009 62.6001Z" fill="#4285F4"/>
<path d="M140.958 25.1729C129.098 25.1729 119.182 35.0001 119.182 48.3819C119.182 61.7638 128.903 71.591 140.958 71.591C153.012 71.591 162.733 61.9729 162.733 48.591C162.733 35.0001 153.012 25.1729 140.958 25.1729ZM140.958 62.6001C134.347 62.6001 128.709 56.7456 128.709 48.591C128.709 40.2274 134.347 34.5819 140.958 34.5819C147.568 34.5819 153.207 40.2274 153.207 48.591C153.207 56.7456 147.568 62.6001 140.958 62.6001Z" fill="#FBBC05"/>
<path d="M215.422 1.54541H224.755V71.7999H215.422V1.54541Z" fill="#34A853"/>
<path d="M253.53 62.6001C248.669 62.6001 245.364 60.3001 243.031 55.491L272 42.7365L271.028 40.0183C269.278 34.791 263.64 25.1729 252.558 25.1729C241.475 25.1729 232.143 34.5819 232.143 48.3819C232.143 61.3456 241.281 71.591 253.53 71.591C263.445 71.591 269.084 65.1092 271.611 61.3456L264.223 56.1183C261.695 60.091 258.39 62.6001 253.53 62.6001ZM252.946 33.9547C256.835 33.9547 260.14 36.0456 261.112 38.9728L241.67 47.7547C241.475 38.1365 248.086 33.9547 252.946 33.9547Z" fill="#EA4335"/>
</g>
<defs>
<clipPath id="clip0_2259_450">
<rect width="272" height="92" fill="white" transform="translate(0 0.5)"/>
</clipPath>
</defs>
</svg>
